<svg width="100" height="100" version="1.1" viewBox="0 0 26.458 26.458" xmlns="http://www.w3.org/2000/svg">
 <path d="m12.892 13.856c-6.1098-6.106-11.147-11.253-11.195-11.437-0.10488-0.4093 0.30155-0.91008 0.73861-0.91008 0.37697 0 22.479 22.034 22.608 22.539 0.10488 0.4093-0.30155 0.91008-0.7386 0.91008-0.20821 0-3.8243-3.5173-11.413-11.102zm-8.3514 8.3054c-0.23922-0.13933-0.25648-0.67848-0.25648-8.0135v-7.8641l1.3149 1.2905 0.03869 4.5461 0.03869 4.5461 1.9408-2.3669c1.0675-1.3018 1.9949-2.4003 2.0609-2.4411 0.06605-0.04082 2.4899 2.2962 5.3863 5.1935l5.2662 5.2677-7.7668-0.0045c-5.0022-0.0029-7.8581-0.05763-8.0233-0.15384zm15.059-4.8302-2.7846-2.7931 0.47862-0.43266c0.38334-0.34652 0.61226-0.43265 1.1498-0.43265 0.89855 0 1.35 0.29771 2.0195 1.3317 0.30865 0.47669 0.5869 0.86671 0.61833 0.86671 0.03143 0 0.05714-2.3413 0.05714-5.2028v-5.2028h-13.422l-1.2945-1.319h7.8534c6.4515 0 7.883 0.03566 8.0192 0.19977 0.11984 0.1444 0.15528 2.3587 0.12786 7.9889l-0.03793 7.7891zm-4.3275-6.5462c-0.75398-0.51966-0.99552-1.2345-0.67387-1.9944 0.32045-0.75702 0.75963-1.0534 1.5608-1.0534 0.84024 0 1.3762 0.41236 1.6279 1.2525 0.41604 1.3886-1.3135 2.6233-2.5149 1.7953z" style="fill:#7a7a7a;stroke-width:.14656"/>
</svg>
