<svg width="35" height="28" viewBox="0 0 35 28" fill="none" xmlns="http://www.w3.org/2000/svg">
<path d="M34.1667 3.82978C32.9409 4.36431 31.6241 4.72548 30.2397 4.88873C31.6681 4.04763 32.7368 2.72383 33.2462 1.16434C31.9042 1.94879 30.4355 2.50096 28.9038 2.79683C27.8738 1.71457 26.5095 0.997233 25.0228 0.756185C23.536 0.515137 22.01 0.763867 20.6816 1.46376C19.3533 2.16365 18.2969 3.27555 17.6764 4.62682C17.056 5.97809 16.9063 7.49313 17.2505 8.93672C14.5312 8.80236 11.871 8.10683 9.44259 6.89525C7.01415 5.68368 4.87172 3.98315 3.15435 1.90402C2.56713 2.90085 2.22948 4.05659 2.22948 5.28746C2.22883 6.39552 2.50611 7.48661 3.03672 8.46393C3.56734 9.44124 4.33489 10.2746 5.27126 10.8899C4.18532 10.8559 3.12333 10.5672 2.1737 10.0477V10.1344C2.17359 11.6885 2.71985 13.1947 3.71981 14.3976C4.71977 15.6005 6.11182 16.4258 7.65976 16.7337C6.65237 17.002 5.59619 17.0415 4.57101 16.8492C5.00774 18.1865 5.85847 19.3558 7.00409 20.1936C8.14971 21.0313 9.53286 21.4956 10.9599 21.5213C8.53741 23.3928 5.54562 24.4079 2.46584 24.4035C1.92028 24.4036 1.37519 24.3723 0.833374 24.3096C3.95953 26.2876 7.59861 27.3374 11.3152 27.3333C23.8963 27.3333 30.7741 17.0789 30.7741 8.18549C30.7741 7.89655 30.7667 7.60473 30.7535 7.31579C32.0913 6.36371 33.2461 5.18474 34.1638 3.83411L34.1667 3.82978Z" fill="#7A7A7A"/>
</svg>
